<svg width="41" height="31" viewBox="0 0 41 31" fill="none" xmlns="http://www.w3.org/2000/svg">
<g clip-path="url(#clip0_75_943)">
<path d="M2.44348 30.458H38.2841C39.4362 30.3877 40.3638 29.3486 40.3638 28.0908V2.8252C40.3638 1.52832 39.3855 0.46582 38.1826 0.458008H2.54493C1.34203 0.46582 0.36377 1.52832 0.36377 2.8252V28.083C0.36377 29.3486 1.29131 30.3877 2.44348 30.458Z" fill="#FEFEFE"/>
<path d="M17.5667 18.4502V30.458H23.1319V18.4502H40.3638V12.4502H23.1319V0.458008H17.5667V12.4502H0.36377V18.4502H17.5667Z" fill="#C8102E"/>
<path d="M24.9869 10.1689V0.458008H38.1971C39.1101 0.473633 39.8927 1.09082 40.2116 1.95801L24.9869 10.1689Z" fill="#012169"/>
<path d="M24.9869 20.7471V30.458H38.284C39.1609 30.4033 39.9 29.7939 40.2116 28.958L24.9869 20.7471Z" fill="#012169"/>
<path d="M15.7116 20.7471V30.458H2.44353C1.56672 30.4033 0.820339 29.7939 0.515991 28.9424L15.7116 20.7471Z" fill="#012169"/>
<path d="M15.7116 10.1689V0.458008H2.53048C1.61744 0.473633 0.827585 1.09863 0.515991 1.97363L15.7116 10.1689Z" fill="#012169"/>
<path d="M0.36377 10.458H5.90725L0.36377 7.46582V10.458Z" fill="#012169"/>
<path d="M40.3637 10.458H34.7913L40.3637 7.4502V10.458Z" fill="#012169"/>
<path d="M40.3637 20.458H34.7913L40.3637 23.4658V20.458Z" fill="#012169"/>
<path d="M0.36377 20.458H5.90725L0.36377 23.4502V20.458Z" fill="#012169"/>
<path d="M40.3638 2.99707L26.5594 10.458H29.6464L40.3638 4.67676V2.99707Z" fill="#C8102E"/>
<path d="M14.1391 20.458H11.0522L0.36377 26.2236V27.9033L14.1681 20.458H14.1391Z" fill="#C8102E"/>
<path d="M7.98696 10.4658H11.0739L0.36377 4.68457V6.35645L7.98696 10.4658Z" fill="#C8102E"/>
<path d="M32.7044 20.4502H29.6174L40.3638 26.2549V24.583L32.7044 20.4502Z" fill="#C8102E"/>
</g>
<defs>
<clipPath id="clip0_75_943">
<rect width="40" height="30" fill="white" transform="translate(0.36377 0.458008)"/>
</clipPath>
</defs>
</svg>
