<svg width="41" height="31" viewBox="0 0 41 31" fill="none" xmlns="http://www.w3.org/2000/svg">
<g clip-path="url(#clip0_75_932)">
<path d="M0.36377 0.452148H40.3638V10.4584H0.36377V0.452148Z" fill="#FECB00"/>
<path d="M0.36377 20.458H40.3638V30.458H0.36377V20.458Z" fill="#EA2839"/>
<path d="M0.36377 10.458H40.3638V20.458H0.36377V10.458Z" fill="#34B233"/>
<path d="M13.8658 25.4572L17.466 14.4081L23.2615 18.6188L13.8658 25.4572Z" fill="white"/>
<path d="M9.84989 13.0964L21.4707 13.1061L19.257 19.9191L9.84989 13.0964Z" fill="white"/>
<path d="M20.3638 5.45801L23.9456 16.513H16.782L20.3638 5.45801Z" fill="white"/>
<path d="M30.8777 13.0969L21.4706 19.9196L19.2569 13.1066L30.8777 13.0969Z" fill="white"/>
<path d="M26.8618 25.4569L17.466 18.6186L23.2616 14.4079L26.8618 25.4569Z" fill="white"/>
</g>
<defs>
<clipPath id="clip0_75_932">
<rect width="40" height="30" fill="white" transform="translate(0.36377 0.458008)"/>
</clipPath>
</defs>
</svg>
